<svg width="198" height="167" viewBox="0 0 198 167" fill="none" xmlns="http://www.w3.org/2000/svg">
<path d="M153.117 15.2504C151.536 14.0907 151.66 12.2277 152.117 10.4901C152.741 8.17272 153.657 5.89643 154.448 3.62014C154.614 3.12253 154.864 2.66809 155.072 2.08822C153.2 1.42611 151.619 1.83942 150.121 2.83259C147.874 4.32339 146.211 6.35087 145.047 8.70941C141.387 16.0359 138.765 23.7346 136.603 31.5977C135.605 35.2394 134.648 38.8399 133.608 42.4836C133.441 43.1046 133.067 43.7235 132.61 44.18C129.074 47.6572 125.497 51.0911 121.961 54.5683C120.171 56.3058 118.466 58.0866 116.72 59.8241C116.387 60.1552 115.887 60.3217 115.472 60.5685C115.348 60.404 115.263 60.2806 115.139 60.1141C116.428 59.0798 117.718 58.0866 119.008 57.0523C118.84 56.8446 118.675 56.6369 118.466 56.4313C117.176 56.7212 115.846 56.9268 114.556 57.299C114.223 57.3833 114.017 58.0043 113.849 58.4176C112.436 61.9359 111.02 65.4953 109.565 69.0115C109.398 69.4269 109.106 69.758 108.858 70.1301C108.732 70.089 108.567 70.0068 108.441 69.9636C108.526 69.5091 108.567 69.0547 108.732 68.6393C109.565 66.6119 110.396 64.5844 111.27 62.598C113.767 56.8035 115.056 50.7601 114.93 44.4288C114.765 35.9426 115.928 27.625 117.759 19.3876C117.927 18.6844 118.092 18.0222 118.301 17.319C116.137 16.0359 115.43 14.5883 115.887 11.9809C116.178 10.3236 116.72 8.66828 117.176 6.80736C116.552 7.01299 115.972 7.17954 115.472 7.4263C112.601 8.83484 110.979 11.2756 109.856 14.1729C107.527 20.2985 106.486 26.7552 105.196 33.1296C104.157 38.3032 103.241 43.5179 101.995 48.6504C100.788 53.6162 98.2502 57.8789 94.3814 61.3149C93.0092 62.5137 91.7609 63.84 90.3887 64.9977C89.3492 65.8675 88.8077 66.7352 89.5145 68.0615C89.6819 68.3494 89.6406 68.7236 89.7232 69.0958C89.5558 69.1781 89.3905 69.2192 89.2231 69.3015C88.9338 68.7648 88.5576 68.226 88.3923 67.605C88.1836 66.8607 87.8095 66.6119 87.0201 66.5296C84.8563 66.2397 82.6925 65.8264 80.5308 65.3699C74.7897 64.0868 69.0919 62.6391 63.3508 61.3972C61.8525 61.0661 60.2302 61.356 58.6926 61.356C58.6513 61.1484 58.6079 60.9839 58.5665 60.7762C58.984 60.6528 59.4407 60.3217 59.8148 60.3629C62.8941 60.6528 66.054 60.735 69.0485 61.3972C74.0829 62.4726 79.0738 63.9223 84.0234 65.2876C86.6873 66.032 88.8904 65.6187 90.8041 63.4246C92.4677 61.5205 94.4641 59.9496 96.1711 58.0866C99.6638 54.2784 100.912 49.3947 102.202 44.47C98.5416 44.8421 95.0882 45.2555 91.6369 45.5865C83.7341 46.3329 75.9966 47.6572 68.5505 50.3879C62.2286 52.7053 56.2374 55.6849 51.0378 59.9907C49.0827 61.6048 47.1277 63.3835 45.5467 65.3699C34.1078 79.4841 21.4207 92.4386 8.52696 105.185C6.19786 107.503 3.95142 109.946 1.66365 112.304C1.28752 112.676 0.789457 112.925 0.374062 113.256C0.247997 113.133 0.123998 112.966 0 112.843C0.332729 112.471 0.622059 112.097 0.954788 111.724C8.90102 103.612 17.0126 95.6669 24.7914 87.3884C31.7374 79.9797 38.2267 72.1576 44.9226 64.5433C49.2915 59.5342 54.6565 55.8514 60.5629 52.8719C69.7987 48.235 79.6566 45.9176 89.8472 44.9244C93.3832 44.5933 96.8779 44.0978 100.414 43.8078C101.995 43.6824 102.619 43.0203 102.908 41.4061C104.033 34.8261 105.24 28.2871 106.653 21.7893C107.319 18.6844 108.399 15.6637 109.524 12.6842C110.813 9.28928 113.349 7.05411 116.844 5.89643C117.468 5.68875 118.051 5.06776 118.507 4.53107C119.214 3.66127 119.632 2.2116 121.004 2.54266C122.459 2.9169 122.293 4.44676 122.169 5.56537C121.837 7.88279 121.502 10.2002 120.795 12.3942C118.216 20.4651 116.72 28.7416 116.096 37.1435C116.054 37.6411 116.096 38.1367 116.096 38.9242C116.761 38.4677 117.218 38.1367 117.718 37.8467C122.792 34.7849 127.658 31.3489 132.984 28.867C135.896 27.4996 137.434 25.9286 138.349 22.947C139.806 18.3122 141.803 13.883 143.675 9.41471C144.838 6.72305 146.585 4.40564 148.957 2.58584C150.704 1.21842 152.617 0.640612 154.864 1.05392C155.279 1.13617 155.738 0.805114 156.195 0.640612C156.86 0.391803 157.734 -0.188064 158.191 0.0607442C158.65 0.309553 159.065 1.34386 158.939 1.96485C158.65 3.82577 158.191 5.68875 157.567 7.46948C155.405 13.6362 152.95 19.6775 150.954 25.8443C148.292 33.9974 146.794 42.4425 145.795 50.9678C145.463 53.7807 144.297 56.1413 142.342 58.1688C140.013 60.6117 137.684 63.0936 135.313 65.4953C131.653 69.2603 127.95 72.9863 124.331 76.7513C121.045 80.1462 117.883 83.6234 113.725 86.1464C116.511 86.8085 120.963 85.5686 123.666 83.3746C126.91 80.7261 130.155 78.0344 133.441 75.4271C139.972 70.3378 146.543 65.3699 153.074 60.3217C155.32 58.6233 157.567 56.9268 159.731 55.107C160.52 54.4449 161.353 53.4929 161.644 52.5408C165.428 40.744 170.713 29.6114 176.702 18.8098C176.743 18.7255 176.785 18.6432 176.826 18.4787C174.871 16.9879 175.121 14.9605 175.954 13.0975C177.159 10.4079 178.657 7.88279 180.112 5.10888C178.907 4.07458 177.326 3.9512 175.662 4.5722C173.042 5.56537 171.128 7.38517 169.715 9.74577C166.759 14.6705 163.891 19.5953 161.062 24.5612C158.274 29.4448 155.695 34.4539 152.826 39.2553C151.536 41.4061 149.788 43.2691 148.207 45.2143C147.959 45.5454 147.542 45.7531 147.168 45.9998C147.044 45.9176 146.92 45.7942 146.794 45.712C146.961 45.3809 147.044 45.0067 147.294 44.7599C150.538 41.9037 152.409 38.1367 154.448 34.495C159.024 26.4653 163.515 18.3944 168.092 10.3668C169.38 8.04729 171.046 6.01981 173.333 4.61332C175.745 3.16365 178.074 2.54266 180.571 4.11571C180.821 4.28226 181.319 4.15683 181.652 4.03345C182.067 3.86895 182.443 3.49471 182.858 3.33021C183.898 2.9169 184.605 3.49471 184.398 4.5722C184.272 5.27544 184.022 5.93756 183.689 6.59968C180.197 13.5951 176.493 20.4651 173.166 27.5428C170.004 34.2051 167.218 41.0339 164.265 47.7806C164.056 48.235 163.974 48.7326 163.723 49.477C165.387 48.5249 166.759 47.614 168.216 46.9108C173.042 44.5111 177.824 42.0271 182.817 39.9174C185.064 38.9653 187.684 38.6343 190.179 38.4677C192.799 38.3032 194.839 39.6686 196.294 41.8626C196.502 42.1525 196.753 42.4836 197.042 42.6892C198.249 43.3925 198.373 44.0546 197.085 44.7599C194.463 46.2486 191.759 47.5317 189.098 48.8971C187.558 49.7258 185.894 50.3879 184.439 51.3811C177.95 55.6849 171.502 60.1141 166.094 65.7421C163.599 68.3494 160.77 69.7168 157.36 70.3789C150.662 71.7032 143.964 73.1508 137.31 74.6827C135.979 74.9726 134.607 75.6759 133.482 76.5046C130.655 78.6143 127.867 80.8083 125.247 83.1669C121.961 86.1464 118.133 87.265 113.808 87.265C103.45 87.265 93.2179 88.1759 83.0252 90.2034C78.491 91.1143 74.0829 92.1898 69.9227 94.135C64.0989 96.8657 59.7735 101.377 55.6133 106.014C49.4568 112.802 44.6332 120.54 40.0556 128.405C34.6493 137.759 29.5323 147.277 24.4153 156.837C22.9191 159.652 22.0035 162.716 20.7966 165.695C20.6726 166.067 20.5486 166.44 20.3399 166.729C20.2159 166.894 19.8832 167.061 19.7571 166.978C19.5504 166.853 19.3004 166.563 19.3417 166.357C19.383 165.944 19.5504 165.529 19.7158 165.115C22.7103 156.382 27.0792 148.27 31.6134 140.282C37.2285 130.391 43.0109 120.54 49.7069 111.311C53.5343 106.014 57.9011 101.087 63.0181 96.9912C69.0485 92.1487 76.0793 89.6236 83.8168 88.9203C87.1854 88.6304 90.5127 87.7606 93.8834 87.3884C98.7916 86.8928 103.7 86.6029 108.608 86.313C111.02 86.1464 113.225 85.4432 115.097 83.9112C117.011 82.3403 118.925 80.7261 120.671 78.9865C126.412 73.1919 132.11 67.3562 137.766 61.4794C139.515 59.6596 141.261 57.8378 142.759 55.8103C143.632 54.6505 144.256 53.1186 144.547 51.671C145.754 45.5454 146.502 39.3375 147.918 33.2941C149.373 27.294 151.369 21.376 153.117 15.2504ZM195.711 42.7735C194.547 40.2484 191.801 38.7165 188.641 39.3786C185.812 39.9585 182.941 40.744 180.362 41.986C175.038 44.5111 169.88 47.4906 164.598 50.1391C163.473 50.6778 163.225 51.5045 162.767 52.4154C162.101 53.6574 161.518 55.107 160.437 55.9337C153.365 61.4794 146.211 66.8607 139.056 72.2831C138.641 72.5709 138.267 72.9452 137.642 73.4819C138.267 73.3996 138.599 73.3996 138.891 73.3585C144.382 72.1987 149.829 70.9156 155.32 69.9636C159.689 69.1781 163.308 67.5639 166.511 64.2533C171.959 58.5821 178.533 54.2784 185.064 49.8923C185.52 49.5592 186.227 49.2714 186.353 48.8149C186.975 47.0362 188.474 46.2898 189.931 45.5043C191.759 44.5522 193.673 43.7235 195.711 42.7735ZM136.477 28.6182C136.353 28.4928 136.27 28.4105 136.144 28.2871C134.356 29.0726 132.484 29.6936 130.82 30.7279C126.162 33.543 121.628 36.5225 117.011 39.3786C116.22 39.8763 115.928 40.4541 115.928 41.365C115.846 44.5111 115.763 47.6572 115.554 50.7601C115.472 52.2509 115.139 53.6985 114.847 55.4792C117.135 54.4017 119.173 53.4497 121.213 52.5408C125.788 50.4702 128.865 46.6208 132.151 43.0203C132.401 42.7304 132.567 42.3582 132.693 42.0271C133.941 37.5568 135.231 33.0885 136.477 28.6182ZM121.087 3.49471C120.837 3.33021 120.589 3.16365 120.338 2.99915C120.13 3.41246 119.882 3.82577 119.714 4.28226C118.716 6.93074 117.718 9.57921 116.844 12.2688C116.594 13.0152 116.802 13.9673 117.052 14.7528C117.218 15.2915 117.842 15.7048 118.549 16.4903C119.838 11.8966 121.752 7.92391 121.087 3.49471ZM176.743 17.319C177.035 17.3601 177.326 17.4013 177.617 17.4424C179.655 13.1386 181.693 8.79371 183.733 4.48789C183.607 4.40564 183.483 4.32339 183.357 4.20001C183.065 4.36451 182.691 4.44676 182.443 4.69557C179.531 7.4263 177.617 10.7801 176.535 14.5883C176.287 15.4149 176.661 16.4081 176.743 17.319ZM158.067 0.597431C157.567 0.763988 157.402 0.763988 157.317 0.846239C157.11 0.971671 156.901 1.13617 156.777 1.34386C154.696 4.81895 153.117 8.46266 152.867 12.5176C152.826 13.0975 153.159 13.7185 153.324 14.2983C153.492 14.2983 153.657 14.2983 153.824 14.2983C155.447 9.86914 157.9 5.72988 158.067 0.597431ZM187.767 48.0294C187.849 48.1939 187.975 48.3193 188.058 48.4838C190.929 47.0362 193.797 45.6276 196.668 44.18C196.585 44.0135 196.502 43.849 196.418 43.6824C193.382 44.7599 190.346 45.9587 187.767 48.0294Z" fill="#76253C"/>
</svg>
